<svg height="496pt" viewBox="0 -8 496 496" width="496pt" xmlns="http://www.w3.org/2000/svg"><path d="m96.023438 159.921875c-4.421876 0-8-3.578125-8-8v-119.921875c0-4.425781 3.578124-8 8-8 4.425781 0 8 3.574219 8 8v119.921875c0 4.421875-3.574219 8-8 8zm0 0" fill="#e6e9ed"/><path d="m72 231.921875h48c0 13.269531-10.71875 24-24 24s-24-10.722656-24-24zm0 0" fill="#ffce54"/><path d="m160 215.921875c0-35.371094-28.640625-64-64-64s-64 28.628906-64 64v8c0 4.421875 3.574219 8 8 8h111.839844c4.351562 0 7.847656-3.488281 7.960937-7.816406l.199219-.183594zm0 0" fill="#656d78"/><path d="m247.871094 256.015625c-4.421875 0-8-3.574219-8-8v-216.015625c0-4.425781 3.578125-8 8-8 4.425781 0 8 3.574219 8 8v216.015625c0 4.425781-3.574219 8-8 8zm0 0" fill="#e6e9ed"/><path d="m399.976562 159.921875c-4.425781 0-8-3.578125-8-8v-119.921875c0-4.425781 3.574219-8 8-8 4.421876 0 8 3.574219 8 8v119.921875c0 4.421875-3.578124 8-8 8zm0 0" fill="#e6e9ed"/><path d="m216.078125 384.078125h63.84375v.160156c0 17.601563-14.242187 31.921875-31.921875 31.921875-17.601562 0-31.921875-14.320312-31.921875-31.921875zm0 0" fill="#ffce54"/><path d="m376 231.921875h48c0 13.269531-10.800781 24-24 24-13.28125 0-24-10.722656-24-24zm0 0" fill="#ffce54"/><path d="m463.976562 215.921875c0-35.371094-28.640624-64-64-64-35.359374 0-64 28.628906-64 64v8c0 4.421875 3.574219 8 8 8h111.839844c4.351563 0 7.847656-3.488281 7.960938-7.816406l.191406-.183594v-8zm0 0" fill="#656d78"/><path d="m399.976562 151.921875c-2.71875 0-5.382812.222656-8.007812.550781 31.566406 3.941406 55.992188 30.800782 55.992188 63.449219v8l-.191407.183594c-.113281 4.328125-3.609375 7.816406-7.960937 7.816406h16.015625c4.351562 0 7.847656-3.488281 7.960937-7.816406l.191406-.183594v-8c0-35.371094-28.640624-64-64-64zm0 0" fill="#545c66"/><path d="m96.03125 151.921875c-2.71875 0-5.382812.222656-8.007812.550781 31.570312 3.941406 55.992187 30.800782 55.992187 63.449219v8l-.191406.183594c-.113281 4.328125-3.609375 7.816406-7.960938 7.816406h16.015625c4.351563 0 7.847656-3.488281 7.960938-7.816406l.191406-.183594v-8c0-35.371094-28.640625-64-64-64zm0 0" fill="#545c66"/><path d="m496 0v32h-496v-32zm0 0" fill="#965353"/><g fill="#f6bb42"><path d="m248.007812 480.097656c-4.421874 0-8-3.578125-8-8v-24c0-4.425781 3.578126-8 8-8 4.425782 0 8 3.574219 8 8v24c0 4.421875-3.574218 8-8 8zm0 0"/><path d="m304.488281 457c-2.046875 0-4.097656-.785156-5.65625-2.34375l-16.96875-16.96875c-3.128906-3.128906-3.128906-8.183594 0-11.3125 3.128907-3.128906 8.183594-3.128906 11.3125 0l16.96875 16.96875c3.128907 3.128906 3.128907 8.183594 0 11.3125-1.570312 1.558594-3.617187 2.34375-5.65625 2.34375zm0 0"/><path d="m191.519531 456.519531c-2.046875 0-4.09375-.785156-5.65625-2.34375-3.128906-3.121093-3.128906-8.183593 0-11.3125l16.953125-16.96875c3.128906-3.125 8.183594-3.125 11.3125 0 3.128906 3.121094 3.128906 8.183594 0 11.3125l-16.953125 16.96875c-1.558593 1.558594-3.609375 2.34375-5.65625 2.34375zm0 0"/></g><path d="m343.839844 344c0-53.039062-42.960938-96-96-96-52.960938 0-96 42.960938-96 96l.160156.078125v31.226563c-.023438.261718-.160156.503906-.160156.773437 0 4.417969 3.566406 7.984375 7.984375 8h176.175781c4.425781 0 8-3.574219 8-8v-32zm0 0" fill="#656d78"/><path d="m343.839844 344c0-53.039062-42.960938-96-96-96-4.078125 0-8.0625.335938-12 .832031 47.34375 5.921875 83.976562 46.207031 83.976562 95.167969l.160156.078125v32c0 4.425781-3.578124 8-8 8h24.023438c4.425781 0 8-3.574219 8-8v-32zm0 0" fill="#545c66"/></svg>