<?xml version="1.0" encoding="iso-8859-1"?>
<!-- Generator: Adobe Illustrator 22.1.0, SVG Export Plug-In . SVG Version: 6.00 Build 0)  -->
<svg xmlns="http://www.w3.org/2000/svg" xmlns:xlink="http://www.w3.org/1999/xlink" version="1.1" id="Layer_3" x="0px" y="0px" viewBox="0 0 64 64" style="enable-background:new 0 0 64 64;" xml:space="preserve" width="512" height="512">
<g>
	<polyline style="fill:#7E3D30;" points="10,56 10,62 14,62 14,56  "/>
	<rect x="10" y="56" style="fill:#A85140;" width="2" height="6"/>
	<polyline style="fill:#7E3D30;" points="50,56 50,62 54,62 54,56  "/>
	<rect x="50" y="56" style="fill:#A85140;" width="2" height="6"/>
	<rect x="2" y="2" style="fill:#B97466;" width="60" height="30"/>
	<rect x="46" y="17" style="fill:#7B9EBD;" width="12" height="11"/>
	<rect x="6" y="17" style="fill:#7B9EBD;" width="12" height="11"/>
	<rect x="18" y="17" style="fill:#A4D2FC;" width="12" height="11"/>
	<rect x="34" y="17" style="fill:#A4D2FC;" width="12" height="11"/>
	<polyline style="fill:#7E3D30;" points="12,44 12,26 52,26 52,44  "/>
	<rect x="12" y="26" style="fill:#A85140;" width="37" height="18"/>
	<rect x="22" y="30" style="fill:#BF9841;" width="20" height="4"/>
	<rect x="22" y="30" style="fill:#FECA57;" width="17" height="4"/>
	<rect x="34" y="6" style="fill:#7B9EBD;" width="12" height="11"/>
	<rect x="46" y="6" style="fill:#A4D2FC;" width="12" height="11"/>
	<path style="fill:#737A81;" d="M34,44v-5c0-0.552,0.448-1,1-1h12c0.552,0,1,0.448,1,1v5"/>
	<path style="fill:#9AA3AC;" d="M44,38h-9c-0.552,0-1,0.448-1,1v5h11v-5C45,38.448,44.552,38,44,38z"/>
	<path style="fill:#737A81;" d="M16,44v-5c0-0.552,0.448-1,1-1h12c0.552,0,1,0.448,1,1v5"/>
	<path style="fill:#9AA3AC;" d="M26,38h-9c-0.552,0-1,0.448-1,1v5h11v-5C27,38.448,26.552,38,26,38z"/>
	<path style="fill:#9AA3AC;" d="M10,50v-4c0-1.105,0.895-2,2-2h40c1.105,0,2,0.895,2,2v4"/>
	<path style="fill:#BCC1C7;" d="M49,44H12c-1.105,0-2,0.895-2,2v4h41v-4C51,44.895,50.105,44,49,44z"/>
	<rect x="8" y="50" style="fill:#A85140;" width="48" height="6"/>
	<rect x="8" y="50" style="fill:#B97466;" width="45" height="6"/>
	<rect x="6" y="6" style="fill:#A4D2FC;" width="12" height="11"/>
	<rect x="18" y="6" style="fill:#7B9EBD;" width="12" height="11"/>
	<g>
		<rect x="15" y="29" style="fill:#3F1F18;" width="2" height="2"/>
	</g>
	<g>
		<rect x="15" y="33" style="fill:#3F1F18;" width="2" height="2"/>
	</g>
	<g>
		<rect x="47" y="33" style="fill:#3F1F18;" width="2" height="2"/>
	</g>
	<g>
		<rect x="47" y="29" style="fill:#3F1F18;" width="2" height="2"/>
	</g>
</g>
</svg>
