<svg height="512" viewBox="0 0 58 58" width="512" xmlns="http://www.w3.org/2000/svg"><g id="050---Interior-Design" fill="none"><path id="Shape" d="m50.02 6v12c-.0032948 1.1032019-.8967981 1.9967052-2 2h-10l-2.78-14c-.0048139-1.59199788.6291979-3.11938992 1.76-4.24 1.08-1.09 5.36-1.76 7.02-1.76 3.3137085 0 6 2.6862915 6 6z" fill="#3f5c6c"/><path id="Shape" d="m44.02 0c-3.3116533.00495634-5.9950437 2.68834666-6 6v50c-.0032948 1.1032019-.8967981 1.9967052-2 2h-34c-1.10320187-.0032948-1.9967052-.8967981-2-2v-50c0-3.3137085 2.6862915-6 6-6z" fill="#84b5cb"/><path id="Shape" d="m18.015 34v4c0 .5522847-.4477153 1-1 1h-11c-.55228475 0-1-.4477153-1-1v-4z" fill="#e64c3c"/><path id="Shape" d="m8.015 34h7l2-2v-7c0-1.6568542-1.3431458-3-3-3h-5c-1.65685425 0-3 1.3431458-3 3v7z" fill="#c03a2b"/><path id="Shape" d="m31.525 44h-9.51v-3c.0032948-1.1032019.8967981-1.9967052 2-2h6c1.1032019.0032948 1.9967052.8967981 2 2v2.27" fill="#7f8c8d"/><path id="Rectangle-path" d="m25.016 22h4v17h-4z" fill="#56595e" transform="matrix(-1 0 0 -1 54.032 61)"/><path id="Shape" d="m21.075 22h11.881c.3287277.0122769.6428388-.1363059.8418649-.3982242.1990261-.2619184.2580284-.6043529.1581351-.9177758l-2.469-7c-.1561427-.41575-.5559262-.6892019-1-.684h-6.943c-.4440738-.0052019-.8438573.26825-1 .684l-2.469 7c-.0998933.3134229-.040891.6558574.1581351.9177758.1990261.2619183.5131372.4105011.8418649.3982242z" fill="#f9eab0"/><circle id="Oval" cx="17.015" cy="34" fill="#802f34" r="2"/><circle id="Oval" cx="6.015" cy="34" fill="#802f34" r="2"/><path id="Shape" d="m13.015 39 .84 4.2c.0950537.4656663.5047314.800097.98.8h1.18c.5522847 0 1-.4477153 1-1v-4z" fill="#603e26"/><path id="Shape" d="m6.015 39v4c0 .5522847.44771525 1 1 1h1.185c.47526862.000097.88494628-.3343337.98-.8l.839-4.2z" fill="#603e26"/><path id="Shape" d="m34.016 5h-2c-.5522847 0-1-.44771525-1-1s.4477153-1 1-1h2c.5522847 0 1 .44771525 1 1s-.4477153 1-1 1z" fill="#fff"/><path id="Shape" d="m28.016 5h-22c-.55228475 0-1-.44771525-1-1s.44771525-1 1-1h22c.5522847 0 1 .44771525 1 1s-.4477153 1-1 1z" fill="#fff"/><path id="Shape" d="m28.016 55h-17c-.5522847 0-1-.4477153-1-1s.4477153-1 1-1h17c.5522847 0 1 .4477153 1 1s-.4477153 1-1 1z" fill="#2c2f38"/><path id="Shape" d="m8.016 55h-3c-.55228475 0-1-.4477153-1-1s.44771525-1 1-1h3c.55228475 0 1 .4477153 1 1s-.44771525 1-1 1z" fill="#2c2f38"/><path id="Shape" d="m31.525 45h-26.509c-.55228475 0-1-.4477153-1-1s.44771525-1 1-1h26.509c.5522847 0 1 .4477153 1 1s-.4477153 1-1 1z" fill="#3f5c6c"/><path id="Shape" d="m58 24.77c.000429.9852463-.362777 1.9359915-1.02 2.67l-4.01 4.47-15.37 17.11-9.58 4.73-.08.04 3.71-10.11 15.37-17.12 4-4.46c.7079614-.7906214 1.7010955-1.2674928 2.7607705-1.3256343 1.059675-.0581414 2.0990198.3072135 2.8892295 1.0156343l.02.02c.8342152.7580217 1.3098905 1.8328302 1.31 2.96z" fill="#f0c419"/><path id="Shape" d="m50.01 29.25-15.37 17.12-2.99-2.69 15.37-17.12z" fill="#f3d55b"/><path id="Shape" d="m34.64 46.37-6.62 7.38-.08.04 3.71-10.11z" fill="#cbb292"/><path id="Shape" d="m37.6 49.02-9.58 4.73 6.62-7.38z" fill="#a59078"/><path id="Shape" d="m58 24.77c.000429.9852463-.362777 1.9359915-1.02 2.67l-4.01 4.47-2.96-2.66 6.68-7.44c.8342152.7580217 1.3098905 1.8328302 1.31 2.96z" fill="#ff5364"/><path id="Shape" d="m56.69 21.81-6.68 7.44-2.99-2.69 4-4.46c.7079614-.7906214 1.7010955-1.2674928 2.7607705-1.3256343 1.059675-.0581414 2.0990198.3072135 2.8892295 1.0156343z" fill="#fb7b76"/></g></svg>