<svg height="512pt" viewBox="0 0 512 512.00001" width="512pt" xmlns="http://www.w3.org/2000/svg"><path d="m232.464844 164.292969 117.433594-83.371094 117.4375 83.371094v347.707031h-234.871094zm0 0" fill="#ffefe4"/><path d="m232.464844 498h234.871094v14h-234.871094zm0 0" fill="#edd4c2"/><path d="m492.695312 202.277344-142.796874-101.378906-142.792969 101.378906-19.308594-27.195313 162.101563-115.082031 162.101562 115.082031zm0 0" fill="#ff8354"/><path d="m349.898438 74 155.492187 110.390625 6.609375-9.308594-162.101562-115.082031-162.101563 115.082031 6.609375 9.308594zm0 0" fill="#ffac8c"/><path d="m300.589844 385.105469h98.617187v126.894531h-98.617187zm0 0" fill="#5fd4e3"/><path d="m391.015625 393.296875v118.703125h-82.234375v-118.703125zm0 0" fill="#69ebfc"/><g fill="#5fd4e3"><path d="m308.78125 498h82.234375v14h-82.234375zm0 0"/><path d="m333.261719 455.523438c0 3.691406-2.992188 6.683593-6.683594 6.683593s-6.683594-2.992187-6.683594-6.683593c0-3.691407 2.992188-6.679688 6.683594-6.679688s6.683594 2.988281 6.683594 6.679688zm0 0"/><path d="m300.589844 294.945312h98.617187v61.359376h-98.617187zm0 0"/></g><path d="m391.015625 303.136719v44.976562h-82.234375v-44.976562zm0 0" fill="#69ebfc"/><path d="m345.800781 294.945312h8.191407v61.359376h-8.191407zm0 0" fill="#5fd4e3"/><path d="m291.199219 344.449219h117.398437v22.496093h-117.398437zm0 0" fill="#edd4c2"/><path d="m221.898438 256.03125h256v16.421875h-256zm0 0" fill="#edd4c2"/><path d="m300.589844 162.277344h98.617187v61.359375h-98.617187zm0 0" fill="#5fd4e3"/><path d="m391.015625 170.46875v44.976562h-82.230469v-44.976562zm0 0" fill="#69ebfc"/><path d="m345.800781 162.277344h8.191407v61.359375h-8.191407zm0 0" fill="#5fd4e3"/><path d="m291.199219 211.78125h117.398437v22.496094h-117.398437zm0 0" fill="#edd4c2"/><path d="m174.445312 166.585938h-30.644531v-86.585938h30.644531c6.488282 0 11.746094 5.261719 11.746094 11.746094v63.09375c.003906 6.484375-5.257812 11.746094-11.746094 11.746094zm0 0" fill="#6770e6"/><path d="m143.800781 155.46875h-21.507812v-64.351562h21.507812zm0 0" fill="#5861c7"/><path d="m69.242188 80c-38.242188 0-69.242188 31-69.242188 69.242188v17.34375h19.230469c0-13.808594 11.199219-25.003907 25.003906-25.003907 13.8125 0 25.003906 11.195313 25.003906 25.003907h53.050781v-86.585938zm0 0" fill="#6770e6"/><path d="m174.445312 80h-30.644531v14h30.644531c6.488282 0 11.75 5.261719 11.75 11.75v-14c0-6.488281-5.261718-11.75-11.75-11.75zm0 0" fill="#8f95e6"/><path d="m69.242188 80c-38.242188 0-69.242188 31-69.242188 69.242188v14c0-38.242188 31-69.242188 69.242188-69.242188h53.046874v-14zm0 0" fill="#8f95e6"/><path d="m95.765625 512c-18.375 0-33.042969-15.328125-32.230469-33.6875l12.511719-311.726562h39.4375l12.507813 311.726562c.816406 18.359375-13.851563 33.6875-32.226563 33.6875zm0 0" fill="#69ebfc"/><path d="m95.765625 498c-16.320313 0-29.683594-12.097656-31.910156-27.660156l-.320313 7.972656c-.808594 18.359375 13.855469 33.6875 32.230469 33.6875s33.042969-15.328125 32.230469-33.6875l-.320313-7.972656c-2.222656 15.5625-15.589843 27.660156-31.910156 27.660156zm0 0" fill="#5fd4e3"/><path d="m512 40.503906v-22.007812l-30-10-13 10h-213v22.003906h213l13 10.003906zm0 0" fill="#6770e6"/><path d="m482 8.496094-13 10h-213v6h213l13-10 30 10v-6zm0 0" fill="#8f95e6"/><path d="m261.25 48.5h18.503906c2.898438 0 5.25-2.351562 5.25-5.25v-27.503906c0-2.898438-2.351562-5.25-5.25-5.25h-18.503906c-2.898438 0-5.25-2.347656-5.25-5.25 0-2.894532-2.351562-5.246094-5.246094-5.246094h-221.253906c-16.292969 0-29.5 13.207031-29.5 29.5s13.207031 29.5 29.5 29.5h221.253906c2.898438 0 5.25-2.351562 5.25-5.25-.003906-2.898438 2.347656-5.25 5.246094-5.25zm0 0" fill="#ff8354"/><path d="m279.75 10.496094h-18.503906c-2.898438 0-5.25-2.347656-5.25-5.25.003906-2.894532-2.347656-5.246094-5.246094-5.246094h-221.25c-16.292969 0-29.5 13.207031-29.5 29.5 0 1.707031.175781 3.371094.457031 5 2.378907-13.90625 14.457031-24.5 29.042969-24.5h221.25c2.898438 0 5.25 2.351562 5.25 5.25s2.351562 5.25 5.25 5.25h18.503906c2.894532 0 5.25 2.351562 5.25 5.25v-10c-.003906-2.902344-2.355468-5.253906-5.253906-5.253906zm0 0" fill="#ffac8c"/><path d="m225.5 11.5h-186c-3.039062 0-5.5 2.460938-5.5 5.5s2.460938 5.5 5.5 5.5h186c3.039062 0 5.5-2.460938 5.5-5.5s-2.460938-5.5-5.5-5.5zm0 0" fill="#e0734a"/><path d="m225.5 36.5h-186c-3.039062 0-5.5 2.460938-5.5 5.5s2.460938 5.5 5.5 5.5h186c3.039062 0 5.5-2.460938 5.5-5.5s-2.460938-5.5-5.5-5.5zm0 0" fill="#e0734a"/></svg>